<svg xmlns="http://www.w3.org/2000/svg" width="19.101" height="19.124" viewBox="0 0 19.101 19.124">
  <path id="Path_80140" data-name="Path 80140" d="M97.146-364.663c-.1.428.026,18.15.143,18.344s14.906.182,15.088-.039c.078-.091.13-2.608.143-6.772.013-3.645.078-6.668.143-6.733.35-.35.389.195.389,5.021l.013,4.956.311.519a2.07,2.07,0,0,1,.324.869c0,.324.195.6.337.454a1.291,1.291,0,0,0,.117-.48,2.3,2.3,0,0,1,.324-.83c.246-.415.259-.623.259-5.643,0-3.075.052-5.2.117-5.2.519,0,.532.091.532,2.478,0,2.231.013,2.322.259,2.322s.259-.091.259-2.452v-2.465l-.545-.3-.558-.3-.065-1.012c-.052-.817-.117-1.064-.311-1.206a.72.72,0,0,0-1.051.143c-.272.259-.324.441-.324,1.077v.752l.584.285.6.285-.039,5.5c-.026,3.023-.091,5.553-.143,5.617s-.195-.013-.3-.143c-.143-.208-.182-1.155-.182-5.345v-5.1l-.285-.195a.721.721,0,0,0-1.025.039l-.311.246v6.564l.013,6.564h-.921c-.493.013-3.684.013-7.07.013H97.807l-.065-2.374c-.039-1.31-.052-5.28-.026-8.835l.039-6.448,7.07.026,7.07.039.026,1.388.026,1.4-6.227.026-6.227.039v11.806l2.971.039c2.3.026,3-.013,3.088-.13.052-.091.1-2.141.1-4.554v-4.372l2.569.026,2.556.039v6.227h-3.892l-.039-2.569-.026-2.556h.558c.778,0,1.129.285,1.129.9a.9.9,0,0,1-.8.973c-.454.1-.454.285.026.856a1.7,1.7,0,0,1,.389.584,1.338,1.338,0,0,1-.389.519c-.441.415-.48.558-.195.662.1.052.363-.091.61-.337l.415-.428.337.415c.6.714,1,.428.441-.311l-.35-.467.285-.389a.848.848,0,0,0,.221-.6c-.078-.182-.143-.156-.467.156s-.415.337-.584.195c-.272-.221-.246-.376.117-.662a1.515,1.515,0,0,0,.467-1.622c-.234-.675-.765-.96-1.855-.96H106.3l.026,3.075.039,3.088h4.93v-7.265h-6.1l-.039,4.5c-.026,4.177-.052,4.515-.259,4.528-.117,0-.571.013-1,0s-1.492,0-2.361-.013c-1.5,0-1.6-.013-1.6-.259,0-.272.3-.324,1.414-.259.817.039,1.959-.143,1.959-.324,0-.208-1.466-.4-2.115-.272a3.152,3.152,0,0,1-.856,0c-.324-.065-.4-.143-.376-.363.039-.259.1-.272,2.244-.272,1.985,0,2.205-.026,2.244-.221s-.156-.234-2.205-.259c-2.218-.039-2.244-.039-2.283-.337s-.039-.285,1.648-.285c1.609,0,1.7-.013,1.7-.259s-.091-.26-1.7-.26c-1.687,0-1.687,0-1.648-.3s.065-.285,2.283-.324c2.05-.026,2.244-.052,2.205-.259s-.285-.221-2.283-.259c-2.244-.026-2.244-.039-2.205-.324s.091-.285,1.7-.324c1.492-.026,1.661-.052,1.622-.259s-.246-.221-1.7-.259c-1.544-.026-1.648-.052-1.648-.285s.1-.26,2.205-.26c1.881,0,2.231-.026,2.3-.195.143-.4.1-.415-2.906-.441-1.492-.013-1.6-.026-1.6-.272s.1-.259,1.648-.285c1.453-.039,1.661-.065,1.7-.259s-.13-.233-1.622-.259c-1.609-.039-1.661-.052-1.7-.337l-.039-.285h2.27c2.192,0,2.283-.013,2.283-.259s-.091-.259-2.27-.259h-2.27v-1.687H106.1c5.085,0,6.175-.026,6.292-.182a5.629,5.629,0,0,0,.117-1.972l-.039-1.8-7.615-.039L97.223-365Z" transform="translate(-96.954 365.15)" stroke="#000" stroke-width="0.3"/>
</svg>
